<svg width="15" height="15" viewBox="0 0 15 15" fill="none" xmlns="http://www.w3.org/2000/svg">
<path fill-rule="evenodd" clip-rule="evenodd" d="M4.06355 1.69804C4.01341 1.63354 3.95012 1.58045 3.87788 1.54229C3.80564 1.50413 3.72611 1.48178 3.64457 1.47672C3.56303 1.47166 3.48134 1.484 3.40494 1.51294C3.32854 1.54187 3.25917 1.58673 3.20143 1.64453L2.32318 2.52364C1.91293 2.93473 1.76174 3.51656 1.94096 4.02703C2.68479 6.13993 3.89477 8.05825 5.48116 9.6397C7.06263 11.2261 8.98094 12.436 11.0938 13.1799C11.6043 13.3591 12.1861 13.2079 12.5972 12.7977L13.4755 11.9194C13.5333 11.8617 13.5781 11.7923 13.6071 11.7159C13.636 11.6395 13.6484 11.5578 13.6433 11.4763C13.6382 11.3947 13.6159 11.3152 13.5777 11.243C13.5396 11.1707 13.4865 11.1074 13.422 11.0573L11.4625 9.53353C11.3935 9.48008 11.3134 9.44299 11.2281 9.42504C11.1427 9.40708 11.0544 9.40875 10.9698 9.4299L9.10969 9.89451C8.8614 9.95657 8.60127 9.95328 8.35463 9.88496C8.10799 9.81664 7.88324 9.68561 7.70227 9.50465L5.61621 7.41774C5.43509 7.23685 5.30391 7.01214 5.23544 6.7655C5.16697 6.51886 5.16355 6.25868 5.22549 6.01032L5.69095 4.15019C5.71211 4.06559 5.71377 3.97729 5.69582 3.89195C5.67787 3.80661 5.64077 3.72646 5.58733 3.65755L4.06355 1.69804ZM2.56016 1.00411C2.70879 0.855422 2.88736 0.740061 3.084 0.665681C3.28064 0.591302 3.49085 0.559608 3.70068 0.572702C3.91051 0.585796 4.11515 0.64338 4.30102 0.741629C4.48689 0.839878 4.64973 0.976544 4.77872 1.14255L6.3025 3.10121C6.58195 3.4605 6.68047 3.9285 6.57006 4.37018L6.10545 6.23031C6.08143 6.32665 6.08272 6.42757 6.10921 6.52327C6.13571 6.61896 6.18649 6.70618 6.25664 6.77646L8.34355 8.86337C8.41391 8.93366 8.50127 8.98453 8.59713 9.01102C8.69299 9.03752 8.79408 9.03874 8.89055 9.01456L10.7498 8.54995C10.9678 8.49546 11.1953 8.49122 11.4151 8.53757C11.635 8.58393 11.8414 8.67965 12.0188 8.81751L13.9775 10.3413C14.6816 10.8891 14.7461 11.9296 14.1159 12.559L13.2376 13.4373C12.6091 14.0658 11.6697 14.3418 10.794 14.0335C8.55265 13.2449 6.51763 11.9618 4.83988 10.2793C3.15751 8.60178 1.87438 6.56705 1.08564 4.32601C0.778167 3.45115 1.05421 2.5109 1.68275 1.88236L2.56101 1.00411H2.56016Z" fill="black"/>
</svg>
