<svg width="16" height="17" viewBox="0 0 16 17" fill="none" xmlns="http://www.w3.org/2000/svg">
<path fill-rule="evenodd" clip-rule="evenodd" d="M10.4419 10.6619C10.5348 10.569 10.6451 10.4952 10.7665 10.4449C10.8879 10.3946 11.018 10.3687 11.1494 10.3687C11.2809 10.3687 11.411 10.3946 11.5324 10.4449C11.6538 10.4952 11.7641 10.569 11.8569 10.6619L15.7069 14.5119C15.8946 14.6994 16.0001 14.9538 16.0001 15.2191C16.0002 15.4844 15.895 15.7388 15.7074 15.9264C15.5199 16.1141 15.2656 16.2195 15.0003 16.2196C14.735 16.2197 14.4806 16.1144 14.2929 15.9269L10.4429 12.0769C10.35 11.9841 10.2762 11.8738 10.2259 11.7524C10.1756 11.631 10.1497 11.5009 10.1497 11.3694C10.1497 11.238 10.1756 11.1079 10.2259 10.9865C10.2762 10.8651 10.349 10.7548 10.4419 10.6619Z" fill="black"/>
<path fill-rule="evenodd" clip-rule="evenodd" d="M6.5 12.22C7.22227 12.22 7.93747 12.0777 8.60476 11.8013C9.27205 11.5249 9.87837 11.1198 10.3891 10.6091C10.8998 10.0983 11.3049 9.49202 11.5813 8.82473C11.8577 8.15744 12 7.44224 12 6.71997C12 5.9977 11.8577 5.2825 11.5813 4.61521C11.3049 3.94792 10.8998 3.34161 10.3891 2.83088C9.87837 2.32016 9.27205 1.91503 8.60476 1.63863C7.93747 1.36223 7.22227 1.21997 6.5 1.21997C5.04131 1.21997 3.64236 1.79943 2.61091 2.83088C1.57946 3.86233 1 5.26128 1 6.71997C1 8.17866 1.57946 9.57761 2.61091 10.6091C3.64236 11.6405 5.04131 12.22 6.5 12.22ZM13 6.71997C13 8.44388 12.3152 10.0972 11.0962 11.3162C9.87721 12.5352 8.22391 13.22 6.5 13.22C4.77609 13.22 3.12279 12.5352 1.90381 11.3162C0.684819 10.0972 0 8.44388 0 6.71997C0 4.99606 0.684819 3.34276 1.90381 2.12378C3.12279 0.90479 4.77609 0.219971 6.5 0.219971C8.22391 0.219971 9.87721 0.90479 11.0962 2.12378C12.3152 3.34276 13 4.99606 13 6.71997Z" fill="black"/>
</svg>
