<svg width="15" height="15" viewBox="0 0 15 15" fill="none" xmlns="http://www.w3.org/2000/svg">
<path fill-rule="evenodd" clip-rule="evenodd" d="M4.06349 1.69804C4.01335 1.63354 3.95006 1.58045 3.87782 1.54229C3.80558 1.50413 3.72605 1.48178 3.64451 1.47672C3.56297 1.47166 3.48128 1.484 3.40488 1.51294C3.32848 1.54187 3.25911 1.58673 3.20137 1.64453L2.32312 2.52364C1.91287 2.93473 1.76168 3.51656 1.9409 4.02703C2.68473 6.13993 3.89471 8.05825 5.4811 9.6397C7.06257 11.2261 8.98088 12.436 11.0938 13.1799C11.6042 13.3591 12.1861 13.2079 12.5972 12.7977L13.4754 11.9194C13.5332 11.8617 13.5781 11.7923 13.607 11.7159C13.6359 11.6395 13.6483 11.5578 13.6432 11.4763C13.6382 11.3947 13.6158 11.3152 13.5777 11.243C13.5395 11.1707 13.4864 11.1074 13.4219 11.0573L11.4624 9.53353C11.3935 9.48008 11.3133 9.44299 11.228 9.42504C11.1427 9.40708 11.0544 9.40875 10.9698 9.4299L9.10963 9.89451C8.86134 9.95657 8.60121 9.95328 8.35457 9.88496C8.10793 9.81664 7.88318 9.68561 7.70221 9.50465L5.61615 7.41774C5.43503 7.23685 5.30385 7.01214 5.23538 6.7655C5.16691 6.51886 5.16348 6.25868 5.22543 6.01032L5.69089 4.15019C5.71205 4.06559 5.71371 3.97729 5.69576 3.89195C5.67781 3.80661 5.64071 3.72646 5.58727 3.65755L4.06349 1.69804ZM2.5601 1.00411C2.70873 0.855422 2.8873 0.740061 3.08394 0.665681C3.28058 0.591302 3.49079 0.559608 3.70062 0.572702C3.91045 0.585796 4.11509 0.64338 4.30096 0.741629C4.48683 0.839878 4.64966 0.976544 4.77866 1.14255L6.30244 3.10121C6.58189 3.4605 6.68041 3.9285 6.56999 4.37018L6.10539 6.23031C6.08137 6.32665 6.08266 6.42757 6.10915 6.52327C6.13564 6.61896 6.18643 6.70618 6.25658 6.77646L8.34349 8.86337C8.41385 8.93366 8.50121 8.98453 8.59707 9.01102C8.69293 9.03752 8.79402 9.03874 8.89049 9.01456L10.7498 8.54995C10.9677 8.49546 11.1952 8.49122 11.4151 8.53757C11.6349 8.58393 11.8413 8.67965 12.0187 8.81751L13.9774 10.3413C14.6815 10.8891 14.7461 11.9296 14.1158 12.559L13.2376 13.4373C12.6091 14.0658 11.6696 14.3418 10.7939 14.0335C8.55259 13.2449 6.51756 11.9618 4.83982 10.2793C3.15745 8.60178 1.87432 6.56705 1.08558 4.32601C0.778106 3.45115 1.05415 2.5109 1.68269 1.88236L2.56094 1.00411H2.5601Z" fill="black"/>
</svg>
