<svg width="18" height="18" viewBox="0 0 18 18" fill="none" xmlns="http://www.w3.org/2000/svg">
<path fill-rule="evenodd" clip-rule="evenodd" d="M10.45 5.08008C10.45 5.61051 10.2392 6.11922 9.86416 6.49429C9.48909 6.86936 8.98038 7.08008 8.44995 7.08008C7.91952 7.08008 7.41081 6.86936 7.03574 6.49429C6.66066 6.11922 6.44995 5.61051 6.44995 5.08008C6.44995 4.54965 6.66066 4.04094 7.03574 3.66586C7.41081 3.29079 7.91952 3.08008 8.44995 3.08008C8.98038 3.08008 9.48909 3.29079 9.86416 3.66586C10.2392 4.04094 10.45 4.54965 10.45 5.08008ZM8.44995 8.08008C9.2456 8.08008 10.0087 7.76401 10.5713 7.2014C11.1339 6.63879 11.45 5.87573 11.45 5.08008C11.45 4.28443 11.1339 3.52137 10.5713 2.95876C10.0087 2.39615 9.2456 2.08008 8.44995 2.08008C7.6543 2.08008 6.89124 2.39615 6.32863 2.95876C5.76602 3.52137 5.44995 4.28443 5.44995 5.08008C5.44995 5.87573 5.76602 6.63879 6.32863 7.2014C6.89124 7.76401 7.6543 8.08008 8.44995 8.08008ZM14.45 13.0801C14.45 14.0801 13.45 14.0801 13.45 14.0801H3.44995C3.44995 14.0801 2.44995 14.0801 2.44995 13.0801C2.44995 12.0801 3.44995 9.08008 8.44995 9.08008C13.45 9.08008 14.45 12.0801 14.45 13.0801ZM13.45 13.0761C13.449 12.8301 13.296 12.0901 12.618 11.4121C11.966 10.7601 10.739 10.0801 8.44995 10.0801C6.15995 10.0801 4.93395 10.7601 4.28195 11.4121C3.60395 12.0901 3.45195 12.8301 3.44995 13.0761H13.45Z" fill="black"/>
</svg>
