<svg width="14" height="14" viewBox="0 0 14 14" fill="none" xmlns="http://www.w3.org/2000/svg">
<path fill-rule="evenodd" clip-rule="evenodd" d="M3.44349 1.48808C3.39335 1.42358 3.33006 1.37049 3.25782 1.33233C3.18558 1.29417 3.10605 1.27182 3.02451 1.26676C2.94297 1.26169 2.86129 1.27404 2.78489 1.30297C2.70848 1.33191 2.63911 1.37677 2.58138 1.43457L1.70312 2.31368C1.29288 2.72477 1.14169 3.3066 1.32091 3.81707C2.06474 5.92997 3.27472 7.84829 4.8611 9.42974C6.44257 11.0161 8.36089 12.2261 10.4738 12.9699C10.9842 13.1492 11.5661 12.998 11.9772 12.5877L12.8554 11.7095C12.9132 11.6517 12.9581 11.5824 12.987 11.506C13.016 11.4296 13.0283 11.3479 13.0232 11.2663C13.0182 11.1848 12.9958 11.1053 12.9577 11.033C12.9195 10.9608 12.8664 10.8975 12.8019 10.8473L10.8424 9.32357C10.7735 9.27012 10.6933 9.23302 10.608 9.21507C10.5227 9.19712 10.4344 9.19879 10.3498 9.21994L8.48963 9.68455C8.24134 9.74661 7.98121 9.74332 7.73457 9.675C7.48793 9.60668 7.26319 9.47565 7.08222 9.29469L4.99615 7.20778C4.81504 7.02689 4.68386 6.80218 4.61539 6.55554C4.54692 6.3089 4.54349 6.04872 4.60544 5.80036L5.0709 3.94023C5.09205 3.85563 5.09372 3.76733 5.07577 3.68199C5.05782 3.59665 5.02072 3.5165 4.96727 3.44759L3.44349 1.48808ZM1.9401 0.794144C2.08874 0.645461 2.2673 0.5301 2.46394 0.455721C2.66058 0.381341 2.8708 0.349647 3.08063 0.362741C3.29045 0.375835 3.4951 0.433419 3.68096 0.531668C3.86683 0.629917 4.02967 0.766584 4.15867 0.932593L5.68245 2.89125C5.96189 3.25054 6.06042 3.71854 5.95 4.16022L5.48539 6.02035C5.46137 6.11669 5.46267 6.21761 5.48916 6.31331C5.51565 6.409 5.56643 6.49622 5.63658 6.5665L7.72349 8.65341C7.79385 8.7237 7.88122 8.77457 7.97708 8.80106C8.07294 8.82756 8.17402 8.82878 8.27049 8.8046L10.1298 8.33999C10.3477 8.28549 10.5752 8.28126 10.7951 8.32761C11.0149 8.37396 11.2213 8.46969 11.3987 8.60754L13.3574 10.1313C14.0615 10.6792 14.1261 11.7197 13.4958 12.349L12.6176 13.2273C11.9891 13.8558 11.0496 14.1319 10.1739 13.8236C7.9326 13.0349 5.89757 11.7518 4.21982 10.0693C2.53746 8.39182 1.25432 6.35709 0.465585 4.11605C0.158111 3.24119 0.434158 2.30094 1.0627 1.6724L1.94095 0.794144H1.9401Z" fill="black"/>
</svg>
