<svg width="17" height="16" viewBox="0 0 17 16" fill="none" xmlns="http://www.w3.org/2000/svg">
<path fill-rule="evenodd" clip-rule="evenodd" d="M10.8219 10.452C10.9148 10.359 11.0251 10.2852 11.1465 10.2349C11.2679 10.1846 11.398 10.1587 11.5294 10.1587C11.6609 10.1587 11.791 10.1846 11.9124 10.2349C12.0338 10.2852 12.1441 10.359 12.2369 10.452L16.0869 14.302C16.2746 14.4895 16.3801 14.7439 16.3802 15.0091C16.3802 15.2744 16.275 15.5288 16.0874 15.7165C15.8999 15.9041 15.6456 16.0096 15.3803 16.0097C15.115 16.0098 14.8606 15.9045 14.6729 15.717L10.8229 11.867C10.73 11.7741 10.6562 11.6638 10.6059 11.5424C10.5556 11.421 10.5297 11.2909 10.5297 11.1595C10.5297 11.0281 10.5556 10.8979 10.6059 10.7765C10.6562 10.6551 10.729 10.5449 10.8219 10.452Z" fill="black"/>
<path fill-rule="evenodd" clip-rule="evenodd" d="M6.88 12.01C7.60228 12.01 8.31747 11.8677 8.98476 11.5913C9.65205 11.3149 10.2584 10.9098 10.7691 10.3991C11.2798 9.88838 11.6849 9.28206 11.9613 8.61477C12.2377 7.94748 12.38 7.23228 12.38 6.51001C12.38 5.78774 12.2377 5.07254 11.9613 4.40525C11.6849 3.73796 11.2798 3.13164 10.7691 2.62092C10.2584 2.1102 9.65205 1.70507 8.98476 1.42867C8.31747 1.15227 7.60228 1.01001 6.88 1.01001C5.42131 1.01001 4.02237 1.58947 2.99092 2.62092C1.95947 3.65237 1.38001 5.05132 1.38001 6.51001C1.38001 7.9687 1.95947 9.36765 2.99092 10.3991C4.02237 11.4305 5.42131 12.01 6.88 12.01ZM13.38 6.51001C13.38 8.23392 12.6952 9.88722 11.4762 11.1062C10.2572 12.3252 8.60391 13.01 6.88 13.01C5.1561 13.01 3.5028 12.3252 2.28381 11.1062C1.06482 9.88722 0.380005 8.23392 0.380005 6.51001C0.380005 4.7861 1.06482 3.1328 2.28381 1.91382C3.5028 0.694829 5.1561 0.0100098 6.88 0.0100098C8.60391 0.0100098 10.2572 0.694829 11.4762 1.91382C12.6952 3.1328 13.38 4.7861 13.38 6.51001Z" fill="black"/>
</svg>
